<?xml version="1.0" encoding="UTF-8"?>
<svg id="Layer_1" xmlns="http://www.w3.org/2000/svg" xmlns:xlink="http://www.w3.org/1999/xlink" viewBox="0 0 1160.96 743.04">
  <defs>
    <style>
      .cls-1 {
        fill: url(#linear-gradient-2);
      }

      .cls-2 {
        fill: url(#linear-gradient-3);
      }

      .cls-3 {
        fill: url(#linear-gradient);
      }
    </style>
    <linearGradient id="linear-gradient" x1="432.37" y1="262.75" x2="635.73" y2="262.75" gradientUnits="userSpaceOnUse">
      <stop offset="0" stop-color="#603b02"/>
      <stop offset=".49" stop-color="#8a6202"/>
      <stop offset=".95" stop-color="#603b02"/>
    </linearGradient>
    <linearGradient id="linear-gradient-2" x1="520.74" y1="199.7" x2="777.44" y2="199.7" xlink:href="#linear-gradient"/>
    <linearGradient id="linear-gradient-3" x1="520.74" y1="199.7" x2="777.44" y2="199.7" xlink:href="#linear-gradient"/>
  </defs>
  <g>
    <path class="cls-3" d="M628.67,256.83s-178.61,2.13-179.83,2.43-15.49.91-15.8,1.82-5.16,3.65,16.4,4.86,179.22,2.73,179.22,2.73c0,0,6.08-2.13,6.99-5.92.91-3.8-6.99-5.92-6.99-5.92Z"/>
    <path class="cls-1" d="M524.29,223.96s-4.9,4.9-3.19,8.58,9.56,2.7,10.78,1.47,80.86-48.76,87.48-49.99,32.1-18.62,78.41,0,77.92,37,78.66,37h.74s3.19-1.47-12.25-10.78c-15.44-9.31-60.82-33.51-65.91-34.77-2.63-.65-41.9-23.79-85.27-1.49-43.37,22.3-89.44,49.99-89.44,49.99Z"/>
  </g>
  <path class="cls-3" d="M628.67,256.83s-178.61,2.13-179.83,2.43-15.49.91-15.8,1.82-5.16,3.65,16.4,4.86,179.22,2.73,179.22,2.73c0,0,6.08-2.13,6.99-5.92.91-3.8-6.99-5.92-6.99-5.92Z"/>
  <path class="cls-2" d="M524.29,223.96s-4.9,4.9-3.19,8.58,9.56,2.7,10.78,1.47,80.86-48.76,87.48-49.99,32.1-18.62,78.41,0,77.92,37,78.66,37h.74s3.19-1.47-12.25-10.78c-15.44-9.31-60.82-33.51-65.91-34.77-2.63-.65-41.9-23.79-85.27-1.49-43.37,22.3-89.44,49.99-89.44,49.99Z"/>
  <g>
    <path d="M305.19,364.51h-54.79v151.1h-30.29v-151.1h-54.31v-24.62h139.4v24.62Z"/>
    <path d="M456.77,339.89v117.43c0,18.67-5.97,33.45-17.92,44.35-11.95,10.9-27.86,16.35-47.73,16.35s-36.09-5.37-47.91-16.11c-11.83-10.74-17.74-25.65-17.74-44.71v-117.31h30.41v117.55c0,11.75,2.98,20.72,8.93,26.91,5.95,6.2,14.72,9.29,26.31,9.29,23.49,0,35.24-12.39,35.24-37.17v-116.58h30.41Z"/>
    <path d="M581.2,470.36c0-7.72-2.72-13.68-8.15-17.86-5.43-4.18-15.23-8.41-29.39-12.67-14.16-4.26-25.43-9.01-33.79-14.24-16.01-10.06-24.02-23.17-24.02-39.34,0-14.16,5.77-25.83,17.32-35,11.54-9.17,26.53-13.76,44.96-13.76,12.23,0,23.13,2.25,32.71,6.76,9.57,4.51,17.1,10.92,22.57,19.25,5.47,8.33,8.21,17.56,8.21,27.7h-30.41c0-9.17-2.88-16.35-8.63-21.54-5.75-5.19-13.98-7.78-24.68-7.78-9.98,0-17.72,2.13-23.23,6.4-5.51,4.27-8.27,10.22-8.27,17.86,0,6.44,2.98,11.81,8.93,16.11,5.95,4.31,15.77,8.49,29.45,12.55,13.68,4.06,24.66,8.69,32.95,13.88,8.29,5.19,14.36,11.14,18.22,17.86,3.86,6.72,5.79,14.58,5.79,23.59,0,14.65-5.61,26.29-16.84,34.94-11.22,8.65-26.45,12.97-45.68,12.97-12.71,0-24.4-2.35-35.06-7.06-10.66-4.71-18.95-11.2-24.86-19.49-5.91-8.29-8.87-17.94-8.87-28.97h30.53c0,9.98,3.3,17.7,9.9,23.17,6.6,5.47,16.05,8.21,28.36,8.21,10.62,0,18.6-2.15,23.96-6.46,5.35-4.3,8.03-10,8.03-17.08Z"/>
    <path d="M678.12,339.89l50.69,134.69,50.57-134.69h39.47v175.72h-30.41v-57.93l3.02-77.48-51.9,135.41h-21.84l-51.78-135.29,3.02,77.36v57.93h-30.41v-175.72h39.59Z"/>
    <path d="M995.17,432.34c0,17.22-2.98,32.33-8.93,45.32-5.96,13-14.46,22.97-25.53,29.93-11.06,6.96-23.8,10.44-38.2,10.44s-26.93-3.48-38.08-10.44c-11.14-6.96-19.75-16.88-25.83-29.75-6.08-12.87-9.15-27.72-9.23-44.53v-9.9c0-17.14,3.04-32.26,9.11-45.38,6.07-13.11,14.64-23.15,25.71-30.11,11.06-6.96,23.75-10.44,38.08-10.44s27.01,3.44,38.08,10.32c11.06,6.88,19.61,16.78,25.65,29.69,6.03,12.91,9.09,27.94,9.17,45.08v9.78ZM964.63,423.17c0-19.47-3.68-34.4-11.04-44.78s-17.8-15.57-31.32-15.57-23.52,5.17-30.96,15.51c-7.44,10.34-11.25,24.96-11.41,43.87v10.14c0,19.31,3.76,34.24,11.28,44.78,7.52,10.54,17.96,15.81,31.32,15.81s23.92-5.15,31.2-15.45c7.28-10.3,10.92-25.34,10.92-45.14v-9.17Z"/>
  </g>
</svg>